# xmcd
#
# Track frame offsets: 
#        150
#        16409
#        30684
#        51104
#        71019
#        86981
#        104073
#        127852
#        143911
#        165391
#        183419
#
# Disc length: 2720 seconds
#
# Revision: 0
# Processed by: cddbd v1.5.2PL0 Copyright (c) Steve Scherf et al.
# Submitted via: ExactAudioCopy v0.99pb5
#
DISCID=960a9e0b
DTITLE=Theessink, Nalle and Møller - Goin' down slow 2
DYEAR=2006
DGENRE=Folk/Rock
TTITLE0=01. Big Bill's Blues
TTITLE1=02. Wake up Mama
TTITLE2=03. Boomer's Story
TTITLE3=04. Faded Fame
TTITLE4=05. See you later Alligator
TTITLE5=06. Mexico
TTITLE6=07. Jersey Girl
TTITLE7=08. Tears are rolling
TTITLE8=09. Didn't we try
TTITLE9=10. Since I met You
TTITLE10=11. Vieksburg is my Home
EXTD=
EXTT0=abc
EXTT1=
EXTT2=
EXTT3=
EXTT4=
EXTT5=
EXTT6=
EXTT7=
EXTT8=
EXTT9=
EXTT10=
PLAYORDER=
